<?xml version="1.0" encoding="iso-8859-1"?>
<!-- Generator: Adobe Illustrator 26.0.1, SVG Export Plug-In . SVG Version: 6.00 Build 0)  -->
<svg version="1.1" id="Layer_1" xmlns="http://www.w3.org/2000/svg" xmlns:xlink="http://www.w3.org/1999/xlink" x="0px" y="0px"
	 viewBox="0 0 1000 1000" style="enable-background:new 0 0 1000 1000;" xml:space="preserve">
<g id="watermark_1_">
	<g>
		<g id="watermark" style="opacity:0.61;">
			<g>
				<g>
					<g>
						<g>
							<polygon style="fill:#FFFFFF;" points="421.112,924.528 409.007,952.493 402.615,952.493 390.55,924.528 397.541,924.528 
								406.051,944.503 414.68,924.528 							"/>
						</g>
						<g>
							<path style="fill:#FFFFFF;" d="M442.323,943.185h-16.26c0.599,2.677,2.876,4.315,6.153,4.315
								c2.277,0,3.915-0.679,5.393-2.077l3.316,3.595c-1.997,2.278-4.994,3.476-8.868,3.476c-7.431,0-12.265-4.674-12.265-11.067
								c0-6.432,4.914-11.066,11.466-11.066c6.312,0,11.186,4.235,11.186,11.146C442.443,941.987,442.363,942.666,442.323,943.185
								 M425.983,939.55h10.587c-0.44-2.717-2.478-4.475-5.274-4.475C428.46,935.075,426.422,936.793,425.983,939.55"/>
						</g>
						<g>
							<path style="fill:#FFFFFF;" d="M444.997,941.427c0-6.471,4.994-11.066,11.985-11.066c4.514,0,8.07,1.958,9.628,5.473
								l-4.834,2.597c-1.159-2.038-2.877-2.956-4.834-2.956c-3.156,0-5.633,2.198-5.633,5.952c0,3.756,2.477,5.953,5.633,5.953
								c1.958,0,3.675-0.879,4.834-2.956l4.834,2.637c-1.558,3.436-5.114,5.433-9.628,5.433
								C449.991,952.493,444.997,947.899,444.997,941.427"/>
						</g>
						<g>
							<path style="fill:#FFFFFF;" d="M484.386,951.135c-1.279,0.919-3.157,1.358-5.074,1.358c-5.073,0-8.03-2.597-8.03-7.711
								v-8.829h-3.316v-4.794h3.316v-5.233h6.232v5.233h5.353v4.794h-5.353v8.749c0,1.837,0.998,2.836,2.677,2.836
								c0.918,0,1.837-0.279,2.517-0.799L484.386,951.135z"/>
						</g>
					</g>
					<g>
						<path style="fill:#FFFFFF;" d="M527.157,930.68v5.753c-0.519-0.04-0.918-0.08-1.398-0.08c-3.435,0-5.713,1.877-5.713,5.993
							v10.147h-6.232V931h5.953v2.836C521.284,931.759,523.841,930.68,527.157,930.68"/>
					</g>
					<g>
						<path style="fill:#FFFFFF;" d="M528.954,949.257l2.197-4.874c2.357,1.718,5.873,2.916,9.229,2.916
							c3.836,0,5.393-1.278,5.393-2.996c0-5.233-16.26-1.638-16.26-12.025c0-4.754,3.835-8.709,11.785-8.709
							c3.516,0,7.112,0.839,9.708,2.477l-1.998,4.914c-2.597-1.478-5.273-2.197-7.75-2.197c-3.835,0-5.313,1.438-5.313,3.196
							c0,5.154,16.259,1.598,16.259,11.865c0,4.675-3.875,8.67-11.865,8.67C535.905,952.493,531.43,951.175,528.954,949.257"/>
					</g>
					<g>
						<path style="fill:#FFFFFF;" d="M577.131,943.185h-16.26c0.599,2.677,2.876,4.315,6.153,4.315c2.277,0,3.915-0.679,5.393-2.077
							l3.316,3.595c-1.998,2.278-4.994,3.476-8.869,3.476c-7.431,0-12.265-4.674-12.265-11.067c0-6.432,4.914-11.066,11.466-11.066
							c6.312,0,11.187,4.235,11.187,11.146C577.251,941.987,577.171,942.666,577.131,943.185 M560.791,939.55h10.587
							c-0.439-2.717-2.477-4.475-5.273-4.475C563.268,935.075,561.231,936.793,560.791,939.55"/>
					</g>
					<g>
						<path style="fill:#FFFFFF;" d="M602.337,943.185h-16.26c0.599,2.677,2.876,4.315,6.152,4.315c2.277,0,3.915-0.679,5.393-2.077
							l3.316,3.595c-1.998,2.278-4.994,3.476-8.869,3.476c-7.431,0-12.265-4.674-12.265-11.067c0-6.432,4.914-11.066,11.466-11.066
							c6.312,0,11.186,4.235,11.186,11.146C602.457,941.987,602.377,942.666,602.337,943.185 M585.997,939.55h10.587
							c-0.439-2.717-2.477-4.475-5.273-4.475C588.474,935.075,586.437,936.793,585.997,939.55"/>
					</g>
					<g>
						<polygon style="fill:#FFFFFF;" points="615.838,944.064 612.841,947.02 612.841,952.493 606.61,952.493 606.61,922.85 
							612.841,922.85 612.841,939.629 621.95,931 629.381,931 620.432,940.108 630.18,952.493 622.63,952.493 						"/>
					</g>
					<g>
						<path style="fill:#FFFFFF;" d="M514.371,955.416L514.371,955.416l-6.226-6.226c-0.947,1.107-2.075,2.054-3.339,2.796
							c-0.201,0.15-0.406,0.296-0.616,0.433l6.589,6.589c0.992,0.992,2.601,0.992,3.592,0
							C515.363,958.017,515.363,956.408,514.371,955.416"/>
					</g>
					<g>
						<path style="fill:#FFFFFF;" d="M499.965,929.04c0.48-0.377,1.077-0.612,1.735-0.612c0.091,0,0.181,0.005,0.27,0.013
							c-0.466-0.34-1.041-0.542-1.663-0.542c-0.859,0-1.619,0.392-2.137,0.998c-0.111,0-0.218,0.013-0.328,0.016
							c0.086-0.167,0.139-0.354,0.139-0.555c0-0.509-0.311-0.945-0.752-1.13c0.19,0.275,0.301,0.608,0.301,0.968
							c0,0.267-0.066,0.517-0.176,0.742c-6.119,0.437-10.95,5.527-10.95,11.757c0,6.516,5.283,11.799,11.799,11.799
							c6.517,0,11.8-5.283,11.8-11.799C510.004,934.777,505.644,929.892,499.965,929.04 M495.61,932.114
							c0.947,0,1.837,0.244,2.611,0.674c0.813-0.532,1.785-0.842,2.828-0.842c1.547,0,2.934,0.68,3.883,1.756
							c-0.948-0.826-2.186-1.328-3.541-1.328c-0.977,0-1.895,0.261-2.686,0.716c-0.172,0.1-0.34,0.208-0.499,0.326
							c-0.142-0.104-0.29-0.203-0.444-0.292c-0.803-0.476-1.741-0.749-2.743-0.749c-0.653,0-1.279,0.117-1.86,0.331
							C493.895,932.328,494.727,932.114,495.61,932.114 M503.858,941.785c0.25,0.664,0.394,1.38,0.394,2.131
							c0,3.34-2.707,6.047-6.047,6.047c-3.339,0-6.047-2.707-6.047-6.047c0-0.751,0.143-1.467,0.394-2.131
							c-1.35-0.831-2.253-2.317-2.253-4.019c0-2.607,2.114-4.72,4.72-4.72c1.23,0,2.346,0.474,3.186,1.244
							c0.84-0.77,1.956-1.244,3.186-1.244c2.607,0,4.72,2.113,4.72,4.72C506.111,939.467,505.208,940.954,503.858,941.785"/>
					</g>
					<g>
						<path style="fill:#FFFFFF;" d="M503.627,937.351c0,1.082-0.879,1.961-1.961,1.961c-1.082,0-1.961-0.879-1.961-1.961
							s0.879-1.961,1.961-1.961c0.22,0,0.428,0.037,0.625,0.102c-0.065,0.135-0.099,0.287-0.099,0.445
							c0,0.595,0.482,1.076,1.077,1.076c0.11,0,0.217-0.017,0.318-0.048C503.613,937.089,503.627,937.218,503.627,937.351"/>
					</g>
					<g>
						<path style="fill:#FFFFFF;" d="M496.201,937.351c0,0.818-0.665,1.482-1.483,1.482c-0.818,0-1.483-0.664-1.483-1.482
							s0.665-1.483,1.483-1.483c0.166,0,0.324,0.027,0.473,0.077c-0.049,0.102-0.075,0.217-0.075,0.337
							c0,0.449,0.364,0.814,0.814,0.814c0.083,0,0.164-0.013,0.241-0.036C496.191,937.153,496.201,937.251,496.201,937.351"/>
					</g>
					<g>
						<g>
							<g>
								<rect x="484.56" y="939.024" style="fill:#FFFFFF;" width="1.34" height="1.34"/>
							</g>
							<g>
								<rect x="510.51" y="939.024" style="fill:#FFFFFF;" width="1.34" height="1.34"/>
							</g>
							<g>
								<path style="fill:#FFFFFF;" d="M511.332,939.572h-0.304c0-7.07-5.752-12.823-12.823-12.823
									c-7.07,0-12.823,5.753-12.823,12.823h-0.305c0-3.506,1.365-6.803,3.845-9.282c2.479-2.48,5.776-3.845,9.282-3.845
									c3.507,0,6.803,1.365,9.283,3.845C509.966,932.769,511.332,936.065,511.332,939.572"/>
							</g>
						</g>
						<g>
							<rect x="497.534" y="925.927" style="fill:#FFFFFF;" width="1.34" height="1.34"/>
						</g>
						<g>
							<rect x="489.006" y="926.445" style="fill:#FFFFFF;" width="18.397" height="0.304"/>
						</g>
						<g>
							<path style="fill:#FFFFFF;" d="M489.494,926.658c0,0.235-0.191,0.427-0.427,0.427c-0.235,0-0.426-0.191-0.426-0.427
								s0.191-0.427,0.426-0.427C489.303,926.231,489.494,926.422,489.494,926.658"/>
						</g>
						<g>
							<path style="fill:#FFFFFF;" d="M507.829,926.658c0,0.235-0.191,0.427-0.427,0.427c-0.235,0-0.426-0.191-0.426-0.427
								s0.191-0.427,0.426-0.427C507.639,926.231,507.829,926.422,507.829,926.658"/>
						</g>
					</g>
				</g>
				<g>
					<path style="fill:#FFFFFF;" d="M640.109,951.171c0,3.395-5.146,3.395-5.146,0C634.963,947.779,640.109,947.779,640.109,951.171
						z"/>
				</g>
				<g>
					<g>
						<g>
							<path style="fill:#FFFFFF;" d="M307.849,936.236l3.859,13.253l4.038-13.253h4.823l-6.145,17.721h-5.073l-1.822-5.216
								l-1.572-5.896l-1.571,5.896l-1.822,5.216h-5.073l-6.18-17.721h4.858l4.038,13.253l3.822-13.253H307.849z"/>
						</g>
						<g>
							<path style="fill:#FFFFFF;" d="M340.449,936.236l3.859,13.253l4.038-13.253h4.823l-6.145,17.721h-5.073l-1.822-5.216
								l-1.571-5.896l-1.572,5.896l-1.822,5.216h-5.073l-6.18-17.721h4.858l4.038,13.253l3.822-13.253H340.449z"/>
						</g>
						<g>
							<path style="fill:#FFFFFF;" d="M373.048,936.236l3.859,13.253l4.038-13.253h4.823l-6.145,17.721h-5.073l-1.822-5.216
								l-1.572-5.896l-1.571,5.896l-1.822,5.216h-5.073l-6.18-17.721h4.858l4.038,13.253l3.822-13.253H373.048z"/>
						</g>
					</g>
					<g>
						<path style="fill:#FFFFFF;" d="M393.123,951.412c0,3.395-5.146,3.395-5.146,0C387.977,948.02,393.123,948.02,393.123,951.412z
							"/>
					</g>
					<g>
						<path style="fill:#FFFFFF;" d="M658.296,951.171c-2.036,2.001-4.177,2.787-6.787,2.787c-5.108,0-9.361-3.072-9.361-9.323
							c0-6.251,4.253-9.326,9.361-9.326c2.502,0,4.43,0.716,6.359,2.609l-2.752,2.894c-1.036-0.931-2.321-1.393-3.534-1.393
							c-2.929,0-5.073,2.144-5.073,5.216c0,3.357,2.286,5.143,5,5.143c1.393,0,2.787-0.393,3.857-1.463L658.296,951.171z"/>
					</g>
					<g>
						<path style="fill:#FFFFFF;" d="M678.097,944.777c0,5.073-3.465,9.181-9.181,9.181c-5.716,0-9.146-4.107-9.146-9.181
							c0-5.038,3.502-9.181,9.111-9.181S678.097,939.739,678.097,944.777z M664.128,944.777c0,2.679,1.609,5.181,4.788,5.181
							c3.179,0,4.788-2.502,4.788-5.181c0-2.644-1.859-5.216-4.788-5.216C665.772,939.561,664.128,942.133,664.128,944.777z"/>
					</g>
					<g>
						<path style="fill:#FFFFFF;" d="M692.828,953.958v-9.431c0-2.324-1.216-4.43-3.61-4.43c-2.356,0-3.75,2.106-3.75,4.43v9.431
							h-4.36v-17.649h4.038l0.323,2.144c0.928-1.786,2.964-2.429,4.643-2.429c2.109,0,4.218,0.858,5.216,3.287
							c1.574-2.502,3.61-3.217,5.896-3.217c5,0,7.467,3.075,7.467,8.36v9.504h-4.361v-9.504c0-2.321-0.963-4.288-3.322-4.288
							c-2.356,0-3.822,2.036-3.822,4.36v9.431H692.828z"/>
					</g>
				</g>
			</g>
		</g>
		<g style="opacity:0.61;">
			<g>
				<g>
					<path style="fill:#FFFFFF;" d="M708.973,859.493c-0.013-2.665-2.087-4.618-4.766-4.659c-2.011-0.031-1.81,0.261-1.815-1.887
						c-0.006-2.389-0.015-4.778,0.006-7.166c0.007-0.824-0.243-1.505-0.787-2.125c-5.098-5.81-10.184-11.63-15.281-17.441
						c-0.262-0.299-0.599-0.532-0.901-0.796c-13.528,0-27.055,0-40.583,0c-1.729,0.639-2.482,1.889-2.478,3.72
						c0.021,8.159,0.009,16.318,0.008,24.478c0,1.21-0.007,1.281-1.197,1.201c-3.258-0.221-5.477,2.147-5.436,5.426
						c0.096,7.568,0.028,15.137,0.031,22.706c0.001,3.44,1.887,5.32,5.333,5.331c1.267,0.004,1.268,0.004,1.268,1.306
						c0.001,4.831-0.002,9.662,0.002,14.493c0.002,2.595,1.262,3.855,3.85,3.855c17.446,0.001,34.891,0.001,52.337,0
						c2.543,0,3.822-1.268,3.824-3.799c0.005-4.912,0.001-9.823,0.003-14.735c0-1.115,0.005-1.112,1.131-1.121
						c0.589-0.005,1.177,0.017,1.761-0.127c2.169-0.535,3.68-2.273,3.689-4.503C709.007,875.597,709.011,867.545,708.973,859.493z
						 M647.034,828.716c11.619-0.001,23.237-0.001,34.856,0c1.193,0,1.206,0.015,1.207,1.222c0.001,4.884-0.002,9.767,0.002,14.651
						c0.001,1.765,0.543,2.305,2.307,2.306c4.159,0.003,8.318,0,12.477,0.003c0.997,0.001,1.044,0.046,1.046,1.052
						c0.006,1.932,0.005,3.864,0,5.796c-0.003,1.038-0.051,1.085-1.098,1.085c-8.479,0.002-16.958,0.001-25.438,0.001
						c-8.452,0-16.905,0-25.357,0c-1.198,0-1.202-0.003-1.202-1.221c-0.001-7.889-0.001-15.778,0-23.667
						C645.835,828.724,645.844,828.716,647.034,828.716z M697.728,903.645c-8.454,0.001-16.908,0.001-25.362,0.001
						c-8.427,0-16.854,0.001-25.281,0c-1.245,0-1.249-0.003-1.249-1.262c-0.001-4.348-0.003-8.696,0.001-13.043
						c0.001-1.01,0.051-1.059,1.041-1.059c16.989-0.002,33.977-0.002,50.966,0c1.041,0,1.086,0.044,1.087,1.094
						c0.003,4.348,0.003,8.696,0.001,13.043C698.931,903.634,698.92,903.645,697.728,903.645z"/>
				</g>
				<g>
					<g>
						<rect x="668.546" y="828.478" style="fill:#FFFFFF;" width="3.825" height="2.295"/>
					</g>
					<g>
						<rect x="664.722" y="830.773" style="fill:#FFFFFF;" width="3.825" height="2.295"/>
					</g>
					<g>
						<rect x="668.546" y="833.068" style="fill:#FFFFFF;" width="3.825" height="2.295"/>
					</g>
					<g>
						<rect x="664.722" y="835.363" style="fill:#FFFFFF;" width="3.825" height="2.295"/>
					</g>
					<g>
						<rect x="668.546" y="837.658" style="fill:#FFFFFF;" width="3.825" height="2.295"/>
					</g>
					<g>
						<rect x="664.722" y="839.953" style="fill:#FFFFFF;" width="3.825" height="2.295"/>
					</g>
					<g>
						<rect x="668.546" y="842.247" style="fill:#FFFFFF;" width="3.825" height="2.295"/>
					</g>
					<g>
						<rect x="664.722" y="844.542" style="fill:#FFFFFF;" width="3.825" height="2.295"/>
					</g>
					<g>
						<rect x="668.546" y="846.837" style="fill:#FFFFFF;" width="3.825" height="2.295"/>
					</g>
					<g>
						<rect x="664.722" y="849.132" style="fill:#FFFFFF;" width="3.825" height="2.295"/>
					</g>
					<g>
						<rect x="668.546" y="851.427" style="fill:#FFFFFF;" width="3.825" height="2.295"/>
					</g>
					<g>
						<rect x="664.722" y="853.722" style="fill:#FFFFFF;" width="3.825" height="2.295"/>
					</g>
				</g>
			</g>
			<g>
				<path style="fill:#FFFFFF;" d="M364.231,859.493c-0.013-2.665-2.087-4.618-4.766-4.659c-2.011-0.031-1.81,0.261-1.815-1.887
					c-0.006-2.389-0.015-4.778,0.006-7.166c0.007-0.824-0.243-1.505-0.787-2.125c-5.098-5.81-10.184-11.63-15.281-17.441
					c-0.262-0.299-0.599-0.532-0.901-0.796c-13.528,0-27.055,0-40.583,0c-1.729,0.639-2.482,1.889-2.478,3.72
					c0.021,8.159,0.009,16.318,0.008,24.478c0,1.21-0.007,1.281-1.197,1.201c-3.258-0.221-5.477,2.147-5.436,5.426
					c0.096,7.568,0.028,15.137,0.031,22.706c0.001,3.44,1.887,5.32,5.333,5.331c1.267,0.004,1.268,0.004,1.268,1.306
					c0.001,4.831-0.002,9.662,0.002,14.493c0.002,2.595,1.262,3.855,3.85,3.855c17.446,0.001,34.891,0.001,52.337,0
					c2.543,0,3.822-1.268,3.824-3.799c0.005-4.912,0.001-9.823,0.003-14.735c0-1.115,0.004-1.112,1.131-1.121
					c0.589-0.005,1.177,0.017,1.761-0.127c2.169-0.535,3.68-2.273,3.689-4.503C364.264,875.597,364.269,867.545,364.231,859.493z
					 M302.292,828.716c11.619-0.001,23.237-0.001,34.856,0c1.192,0,1.206,0.015,1.207,1.222c0.001,4.884-0.001,9.767,0.002,14.651
					c0.001,1.765,0.543,2.305,2.307,2.306c4.159,0.003,8.318,0,12.477,0.003c0.997,0.001,1.044,0.046,1.046,1.052
					c0.006,1.932,0.005,3.864,0,5.796c-0.003,1.038-0.051,1.085-1.098,1.085c-8.479,0.002-16.958,0.001-25.438,0.001
					c-8.452,0-16.905,0-25.357,0c-1.198,0-1.202-0.003-1.202-1.221c-0.001-7.889-0.001-15.778,0-23.667
					C301.093,828.724,301.102,828.716,302.292,828.716z M352.985,903.645c-8.454,0.001-16.908,0.001-25.362,0.001
					c-8.427,0-16.854,0.001-25.281,0c-1.245,0-1.249-0.003-1.249-1.262c-0.001-4.348-0.003-8.696,0.001-13.043
					c0.001-1.01,0.051-1.059,1.041-1.059c16.989-0.002,33.977-0.002,50.966,0c1.041,0,1.086,0.044,1.087,1.094
					c0.003,4.348,0.003,8.696,0.001,13.043C354.188,903.634,354.177,903.645,352.985,903.645z"/>
			</g>
			<g>
				<path style="fill:#FFFFFF;" d="M303.581,879.891v-17.193h6.051c0.816,0,1.581,0.132,2.293,0.396
					c0.712,0.264,1.333,0.636,1.861,1.117c0.527,0.48,0.944,1.053,1.248,1.717c0.304,0.665,0.456,1.397,0.456,2.198
					c0,0.816-0.152,1.557-0.456,2.221s-0.721,1.236-1.248,1.717c-0.529,0.48-1.149,0.852-1.861,1.117
					c-0.713,0.264-1.477,0.396-2.293,0.396h-2.809v6.315H303.581z M309.68,870.503c0.848,0,1.489-0.241,1.921-0.721
					c0.432-0.48,0.648-1.032,0.648-1.656c0-0.304-0.052-0.601-0.156-0.889c-0.105-0.288-0.264-0.54-0.48-0.756
					c-0.216-0.217-0.484-0.388-0.805-0.516c-0.32-0.129-0.696-0.193-1.128-0.193h-2.857v4.731H309.68z"/>
				<path style="fill:#FFFFFF;" d="M317.796,862.699h3.77l6.916,11.526h0.191l-0.191-3.314v-8.212h3.217v17.193h-3.409l-7.3-12.174
					h-0.191l0.191,3.314v8.86h-3.193V862.699z"/>
				<path style="fill:#FFFFFF;" d="M343.08,870.454h8.429c0.048,0.193,0.087,0.425,0.12,0.697c0.031,0.272,0.048,0.544,0.048,0.816
					c0,1.104-0.167,2.145-0.504,3.121c-0.336,0.977-0.865,1.849-1.585,2.618c-0.768,0.817-1.69,1.449-2.761,1.897
					c-1.073,0.448-2.298,0.672-3.674,0.672c-1.249,0-2.426-0.224-3.53-0.672c-1.104-0.447-2.065-1.072-2.881-1.873
					c-0.816-0.8-1.465-1.749-1.945-2.845c-0.48-1.097-0.72-2.293-0.72-3.59c0-1.296,0.24-2.493,0.72-3.589s1.129-2.045,1.945-2.845
					c0.816-0.8,1.777-1.425,2.881-1.873c1.104-0.448,2.281-0.672,3.53-0.672c1.392,0,2.637,0.24,3.734,0.72
					c1.097,0.48,2.036,1.144,2.821,1.993l-2.232,2.185c-0.562-0.592-1.185-1.044-1.874-1.357s-1.513-0.468-2.473-0.468
					c-0.786,0-1.53,0.14-2.234,0.421c-0.705,0.28-1.321,0.676-1.85,1.188c-0.527,0.512-0.949,1.133-1.259,1.861
					c-0.312,0.728-0.469,1.541-0.469,2.437c0,0.897,0.157,1.709,0.469,2.438c0.311,0.728,0.735,1.349,1.271,1.861
					c0.536,0.512,1.156,0.909,1.862,1.188c0.704,0.281,1.457,0.421,2.258,0.421c0.911,0,1.684-0.132,2.317-0.396
					c0.632-0.264,1.171-0.604,1.62-1.021c0.321-0.288,0.598-0.652,0.829-1.092s0.412-0.932,0.541-1.477h-5.404V870.454z"/>
			</g>
			<g>
				<path style="fill:#FFFFFF;" d="M443.437,859.493c-0.013-2.665-2.087-4.618-4.766-4.659c-2.011-0.031-1.81,0.261-1.815-1.887
					c-0.006-2.389-0.015-4.778,0.006-7.166c0.007-0.824-0.243-1.505-0.787-2.125c-5.098-5.81-10.184-11.63-15.281-17.441
					c-0.262-0.299-0.599-0.532-0.901-0.796c-13.528,0-27.055,0-40.583,0c-1.729,0.639-2.482,1.889-2.478,3.72
					c0.021,8.159,0.009,16.318,0.008,24.478c0,1.21-0.007,1.281-1.197,1.201c-3.258-0.221-5.477,2.147-5.436,5.426
					c0.096,7.568,0.028,15.137,0.031,22.706c0.001,3.44,1.887,5.32,5.333,5.331c1.267,0.004,1.268,0.004,1.268,1.306
					c0.001,4.831-0.002,9.662,0.002,14.493c0.002,2.595,1.262,3.855,3.85,3.855c17.446,0.001,34.891,0.001,52.337,0
					c2.543,0,3.822-1.268,3.824-3.799c0.005-4.912,0.001-9.823,0.003-14.735c0-1.115,0.004-1.112,1.131-1.121
					c0.589-0.005,1.177,0.017,1.761-0.127c2.169-0.535,3.68-2.273,3.689-4.503C443.47,875.597,443.475,867.545,443.437,859.493z
					 M381.498,828.716c11.619-0.001,23.237-0.001,34.856,0c1.192,0,1.206,0.015,1.207,1.222c0.001,4.884-0.001,9.767,0.002,14.651
					c0.001,1.765,0.543,2.305,2.307,2.306c4.159,0.003,8.318,0,12.477,0.003c0.997,0.001,1.044,0.046,1.046,1.052
					c0.006,1.932,0.005,3.864,0,5.796c-0.003,1.038-0.051,1.085-1.098,1.085c-8.479,0.002-16.958,0.001-25.438,0.001
					c-8.452,0-16.905,0-25.357,0c-1.198,0-1.202-0.003-1.202-1.221c-0.001-7.889-0.001-15.778,0-23.667
					C380.299,828.724,380.308,828.716,381.498,828.716z M432.192,903.645c-8.454,0.001-16.908,0.001-25.362,0.001
					c-8.427,0-16.854,0.001-25.281,0c-1.245,0-1.249-0.003-1.249-1.262c-0.001-4.348-0.002-8.696,0.001-13.043
					c0.001-1.01,0.051-1.059,1.041-1.059c16.989-0.002,33.977-0.002,50.966,0c1.041,0,1.086,0.044,1.087,1.094
					c0.003,4.348,0.003,8.696,0.001,13.043C433.394,903.634,433.384,903.645,432.192,903.645z"/>
			</g>
			<g>
				<path style="fill:#FFFFFF;" d="M402.272,862.699h3.698l6.46,17.193h-3.578l-1.416-4.106h-6.628l-1.417,4.106h-3.578
					L402.272,862.699z M406.379,872.808l-1.537-4.298l-0.625-2.089h-0.192l-0.625,2.089l-1.537,4.298H406.379z"/>
				<path style="fill:#FFFFFF;" d="M415.815,866.541c-0.273,0-0.533-0.052-0.781-0.156c-0.248-0.104-0.465-0.248-0.648-0.432
					c-0.184-0.184-0.328-0.396-0.432-0.636c-0.105-0.241-0.156-0.504-0.156-0.793s0.052-0.552,0.156-0.793
					c0.104-0.24,0.248-0.452,0.432-0.636c0.184-0.184,0.4-0.328,0.648-0.432c0.248-0.104,0.508-0.156,0.781-0.156
					c0.56,0,1.041,0.196,1.441,0.588c0.4,0.393,0.601,0.869,0.601,1.429c0,0.56-0.201,1.037-0.601,1.428
					C416.856,866.345,416.375,866.541,415.815,866.541z M414.255,879.891v-11.766h3.145v11.766H414.255z"/>
			</g>
			<g>
				<path style="fill:#FFFFFF;" d="M524.043,859.493c-0.013-2.665-2.087-4.618-4.766-4.659c-2.011-0.031-1.81,0.261-1.815-1.887
					c-0.006-2.389-0.015-4.778,0.006-7.166c0.007-0.824-0.243-1.505-0.787-2.125c-5.098-5.81-10.184-11.63-15.281-17.441
					c-0.262-0.299-0.599-0.532-0.901-0.796c-13.528,0-27.055,0-40.583,0c-1.729,0.639-2.482,1.889-2.478,3.72
					c0.021,8.159,0.009,16.318,0.008,24.478c0,1.21-0.007,1.281-1.197,1.201c-3.258-0.221-5.477,2.147-5.436,5.426
					c0.096,7.568,0.028,15.137,0.031,22.706c0.001,3.44,1.887,5.32,5.333,5.331c1.267,0.004,1.268,0.004,1.268,1.306
					c0.001,4.831-0.002,9.662,0.002,14.493c0.002,2.595,1.262,3.855,3.85,3.855c17.446,0.001,34.891,0.001,52.337,0
					c2.543,0,3.822-1.268,3.824-3.799c0.005-4.912,0.001-9.823,0.003-14.735c0-1.115,0.004-1.112,1.131-1.121
					c0.589-0.005,1.177,0.017,1.761-0.127c2.169-0.535,3.68-2.273,3.689-4.503C524.076,875.597,524.081,867.545,524.043,859.493z
					 M462.104,828.716c11.619-0.001,23.237-0.001,34.856,0c1.192,0,1.206,0.015,1.207,1.222c0.001,4.884-0.001,9.767,0.002,14.651
					c0.001,1.765,0.543,2.305,2.307,2.306c4.159,0.003,8.318,0,12.477,0.003c0.997,0.001,1.044,0.046,1.046,1.052
					c0.006,1.932,0.005,3.864,0,5.796c-0.003,1.038-0.051,1.085-1.098,1.085c-8.479,0.002-16.958,0.001-25.438,0.001
					c-8.452,0-16.905,0-25.357,0c-1.198,0-1.202-0.003-1.202-1.221c-0.001-7.889-0.001-15.778,0-23.667
					C460.905,828.724,460.914,828.716,462.104,828.716z M512.798,903.645c-8.454,0.001-16.908,0.001-25.362,0.001
					c-8.427,0-16.854,0.001-25.281,0c-1.245,0-1.249-0.003-1.249-1.262c-0.001-4.348-0.002-8.696,0.001-13.043
					c0.001-1.01,0.051-1.059,1.041-1.059c16.989-0.002,33.977-0.002,50.966,0c1.041,0,1.086,0.044,1.087,1.094
					c0.003,4.348,0.003,8.696,0.001,13.043C514,903.634,513.989,903.645,512.798,903.645z"/>
			</g>
			<g>
				<path style="fill:#FFFFFF;" d="M470.308,880.275c-0.737,0-1.441-0.104-2.113-0.312c-0.672-0.208-1.289-0.52-1.849-0.936
					c-0.56-0.416-1.048-0.925-1.464-1.525c-0.417-0.601-0.745-1.301-0.985-2.101l3.049-1.2c0.224,0.864,0.616,1.581,1.177,2.149
					s1.297,0.852,2.209,0.852c0.336,0,0.66-0.044,0.973-0.132c0.312-0.087,0.592-0.216,0.84-0.384
					c0.248-0.168,0.444-0.38,0.589-0.636c0.144-0.256,0.216-0.552,0.216-0.888c0-0.32-0.056-0.608-0.168-0.865
					c-0.112-0.255-0.3-0.495-0.564-0.72c-0.264-0.224-0.609-0.44-1.033-0.648c-0.424-0.208-0.948-0.424-1.572-0.648l-1.056-0.384
					c-0.465-0.16-0.933-0.376-1.405-0.648c-0.472-0.272-0.9-0.6-1.284-0.985c-0.385-0.384-0.701-0.836-0.949-1.357
					c-0.249-0.52-0.372-1.108-0.372-1.765c0-0.672,0.132-1.301,0.396-1.885c0.264-0.584,0.64-1.096,1.129-1.537
					c0.488-0.44,1.072-0.784,1.753-1.032c0.681-0.248,1.437-0.372,2.269-0.372c0.864,0,1.612,0.116,2.245,0.348
					c0.633,0.232,1.168,0.528,1.609,0.888c0.44,0.36,0.796,0.757,1.068,1.188c0.272,0.433,0.472,0.84,0.601,1.225l-2.857,1.2
					c-0.161-0.48-0.453-0.913-0.876-1.297c-0.425-0.384-1.005-0.576-1.741-0.576c-0.704,0-1.289,0.164-1.753,0.492
					c-0.465,0.329-0.697,0.757-0.697,1.285c0,0.512,0.224,0.949,0.672,1.309c0.448,0.36,1.161,0.708,2.137,1.044l1.081,0.36
					c0.688,0.241,1.316,0.517,1.885,0.828c0.568,0.312,1.056,0.684,1.465,1.117c0.408,0.433,0.72,0.925,0.936,1.477
					c0.217,0.552,0.324,1.189,0.324,1.909c0,0.897-0.18,1.669-0.54,2.317c-0.36,0.648-0.82,1.181-1.38,1.597
					c-0.561,0.416-1.193,0.728-1.897,0.936C471.668,880.172,470.98,880.275,470.308,880.275z"/>
				<path style="fill:#FFFFFF;" d="M477.175,862.699h3.506l3.554,10.349l0.625,2.209h0.192l0.672-2.209l3.698-10.349h3.506
					l-6.268,17.193h-3.409L477.175,862.699z"/>
				<path style="fill:#FFFFFF;" d="M502.388,870.454h8.428c0.048,0.193,0.088,0.425,0.12,0.697c0.033,0.272,0.049,0.544,0.049,0.816
					c0,1.104-0.169,2.145-0.505,3.121c-0.336,0.977-0.864,1.849-1.585,2.618c-0.768,0.817-1.688,1.449-2.761,1.897
					c-1.073,0.448-2.298,0.672-3.674,0.672c-1.249,0-2.425-0.224-3.529-0.672c-1.105-0.447-2.066-1.072-2.882-1.873
					c-0.816-0.8-1.465-1.749-1.945-2.845c-0.48-1.097-0.72-2.293-0.72-3.59c0-1.296,0.241-2.493,0.72-3.589
					c0.48-1.097,1.129-2.045,1.945-2.845c0.816-0.8,1.777-1.425,2.882-1.873c1.104-0.448,2.28-0.672,3.529-0.672
					c1.392,0,2.637,0.24,3.734,0.72c1.097,0.48,2.038,1.144,2.822,1.993l-2.234,2.185c-0.56-0.592-1.185-1.044-1.874-1.357
					c-0.687-0.312-1.512-0.468-2.473-0.468c-0.784,0-1.528,0.14-2.234,0.421c-0.704,0.28-1.321,0.676-1.848,1.188
					c-0.528,0.512-0.949,1.133-1.261,1.861c-0.312,0.728-0.468,1.541-0.468,2.437c0,0.897,0.156,1.709,0.468,2.438
					c0.312,0.728,0.737,1.349,1.273,1.861c0.536,0.512,1.156,0.909,1.86,1.188c0.705,0.281,1.457,0.421,2.258,0.421
					c0.913,0,1.685-0.132,2.317-0.396c0.632-0.264,1.173-0.604,1.621-1.021c0.32-0.288,0.596-0.652,0.828-1.092
					c0.233-0.44,0.412-0.932,0.541-1.477h-5.402V870.454z"/>
			</g>
			<g>
				<path style="fill:#FFFFFF;" d="M602.976,859.493c-0.013-2.665-2.087-4.618-4.766-4.659c-2.011-0.031-1.81,0.261-1.815-1.887
					c-0.006-2.389-0.015-4.778,0.006-7.166c0.007-0.824-0.243-1.505-0.787-2.125c-5.098-5.81-10.184-11.63-15.281-17.441
					c-0.262-0.299-0.599-0.532-0.901-0.796c-13.528,0-27.055,0-40.583,0c-1.729,0.639-2.482,1.889-2.478,3.72
					c0.021,8.159,0.009,16.318,0.008,24.478c0,1.21-0.007,1.281-1.197,1.201c-3.258-0.221-5.477,2.147-5.436,5.426
					c0.096,7.568,0.028,15.137,0.031,22.706c0.001,3.44,1.887,5.32,5.333,5.331c1.267,0.004,1.268,0.004,1.268,1.306
					c0.001,4.831-0.002,9.662,0.002,14.493c0.002,2.595,1.262,3.855,3.85,3.855c17.446,0.001,34.891,0.001,52.337,0
					c2.543,0,3.822-1.268,3.824-3.799c0.005-4.912,0.001-9.823,0.003-14.735c0-1.115,0.005-1.112,1.131-1.121
					c0.589-0.005,1.178,0.017,1.761-0.127c2.169-0.535,3.68-2.273,3.689-4.503C603.01,875.597,603.015,867.545,602.976,859.493z
					 M541.037,828.716c11.619-0.001,23.237-0.001,34.856,0c1.193,0,1.206,0.015,1.207,1.222c0.001,4.884-0.002,9.767,0.002,14.651
					c0.001,1.765,0.543,2.305,2.307,2.306c4.159,0.003,8.318,0,12.477,0.003c0.997,0.001,1.044,0.046,1.046,1.052
					c0.006,1.932,0.005,3.864,0,5.796c-0.003,1.038-0.051,1.085-1.098,1.085c-8.479,0.002-16.958,0.001-25.438,0.001
					c-8.452,0-16.905,0-25.357,0c-1.198,0-1.202-0.003-1.202-1.221c-0.001-7.889-0.001-15.778,0-23.667
					C539.838,828.724,539.847,828.716,541.037,828.716z M591.731,903.645c-8.454,0.001-16.908,0.001-25.362,0.001
					c-8.427,0-16.854,0.001-25.281,0c-1.245,0-1.249-0.003-1.249-1.262c-0.001-4.348-0.003-8.696,0.001-13.043
					c0.001-1.01,0.051-1.059,1.041-1.059c16.989-0.002,33.977-0.002,50.966,0c1.041,0,1.086,0.044,1.087,1.094
					c0.003,4.348,0.003,8.696,0.001,13.043C592.934,903.634,592.923,903.645,591.731,903.645z"/>
			</g>
			<g>
				<path style="fill:#FFFFFF;" d="M549.998,865.772v3.986h6.891v3.074h-6.891v3.986h7.659v3.073h-10.901v-17.193h10.901v3.073
					H549.998z"/>
				<path style="fill:#FFFFFF;" d="M560.635,879.891v-17.193h6.051c0.816,0,1.581,0.132,2.293,0.396
					c0.712,0.264,1.333,0.636,1.861,1.117c0.528,0.48,0.944,1.053,1.249,1.717c0.304,0.665,0.456,1.397,0.456,2.198
					c0,0.816-0.152,1.557-0.456,2.221c-0.305,0.664-0.721,1.236-1.249,1.717c-0.528,0.48-1.149,0.852-1.861,1.117
					c-0.713,0.264-1.477,0.396-2.293,0.396h-2.809v6.315H560.635z M566.735,870.503c0.848,0,1.489-0.241,1.921-0.721
					c0.432-0.48,0.648-1.032,0.648-1.656c0-0.304-0.052-0.601-0.156-0.889c-0.105-0.288-0.264-0.54-0.48-0.756
					c-0.216-0.217-0.484-0.388-0.805-0.516c-0.32-0.129-0.696-0.193-1.128-0.193h-2.857v4.731H566.735z"/>
				<path style="fill:#FFFFFF;" d="M580.109,880.275c-0.737,0-1.441-0.104-2.113-0.312c-0.672-0.208-1.289-0.52-1.849-0.936
					c-0.56-0.416-1.049-0.925-1.465-1.525c-0.416-0.601-0.744-1.301-0.985-2.101l3.049-1.2c0.224,0.864,0.616,1.581,1.177,2.149
					c0.56,0.568,1.296,0.852,2.209,0.852c0.336,0,0.66-0.044,0.973-0.132c0.312-0.087,0.592-0.216,0.84-0.384
					c0.248-0.168,0.444-0.38,0.588-0.636c0.144-0.256,0.217-0.552,0.217-0.888c0-0.32-0.057-0.608-0.168-0.865
					c-0.112-0.255-0.3-0.495-0.565-0.72c-0.264-0.224-0.608-0.44-1.032-0.648c-0.424-0.208-0.949-0.424-1.573-0.648l-1.056-0.384
					c-0.465-0.16-0.932-0.376-1.404-0.648c-0.473-0.272-0.901-0.6-1.285-0.985c-0.384-0.384-0.701-0.836-0.949-1.357
					c-0.248-0.52-0.372-1.108-0.372-1.765c0-0.672,0.132-1.301,0.396-1.885c0.264-0.584,0.64-1.096,1.129-1.537
					c0.489-0.44,1.073-0.784,1.753-1.032c0.68-0.248,1.437-0.372,2.269-0.372c0.865,0,1.613,0.116,2.246,0.348
					c0.632,0.232,1.168,0.528,1.609,0.888c0.44,0.36,0.796,0.757,1.068,1.188c0.272,0.433,0.472,0.84,0.601,1.225l-2.857,1.2
					c-0.161-0.48-0.453-0.913-0.877-1.297s-1.005-0.576-1.741-0.576c-0.705,0-1.289,0.164-1.753,0.492
					c-0.465,0.329-0.696,0.757-0.696,1.285c0,0.512,0.224,0.949,0.672,1.309c0.448,0.36,1.16,0.708,2.137,1.044l1.08,0.36
					c0.689,0.241,1.317,0.517,1.885,0.828c0.568,0.312,1.056,0.684,1.465,1.117c0.408,0.433,0.72,0.925,0.936,1.477
					c0.216,0.552,0.324,1.189,0.324,1.909c0,0.897-0.18,1.669-0.54,2.317c-0.36,0.648-0.821,1.181-1.38,1.597
					c-0.561,0.416-1.193,0.728-1.897,0.936C581.47,880.172,580.782,880.275,580.109,880.275z"/>
			</g>
			<g>
				<path style="fill:#FFFFFF;" d="M655.431,876.625l8.716-10.854h-8.332v-3.073h12.103v3.266l-8.621,10.854h8.716v3.073h-12.582
					V876.625z"/>
				<path style="fill:#FFFFFF;" d="M670.702,862.699h3.242v17.193h-3.242V862.699z"/>
				<path style="fill:#FFFFFF;" d="M677.402,879.891v-17.193h6.051c0.817,0,1.581,0.132,2.293,0.396
					c0.712,0.264,1.333,0.636,1.861,1.117s0.944,1.053,1.249,1.717c0.304,0.665,0.456,1.397,0.456,2.198
					c0,0.816-0.152,1.557-0.456,2.221c-0.305,0.664-0.721,1.236-1.249,1.717s-1.149,0.852-1.861,1.117
					c-0.713,0.264-1.477,0.396-2.293,0.396h-2.809v6.315H677.402z M683.501,870.503c0.848,0,1.489-0.241,1.921-0.721
					c0.433-0.48,0.648-1.032,0.648-1.656c0-0.304-0.052-0.601-0.156-0.889c-0.105-0.288-0.264-0.54-0.48-0.756
					c-0.216-0.217-0.484-0.388-0.805-0.516c-0.32-0.129-0.696-0.193-1.128-0.193h-2.857v4.731H683.501z"/>
			</g>
		</g>
		<g style="opacity:0.61;">
			<path style="fill:#FFFFFF;" d="M609.144,863.785h19.739v4.881h-19.739V863.785z M609.144,872.201h19.739v4.884h-19.739V872.201z"
				/>
		</g>
	</g>
	<g style="opacity:0.61;">
		<path style="fill:#FFFFFF;" d="M297,963.076h3.498c2.75,0,4.603,1.768,4.603,4.297s-1.854,4.296-4.603,4.296H297V963.076z
			 M300.449,970.883c2.283,0,3.756-1.448,3.756-3.51s-1.473-3.511-3.756-3.511h-2.541v7.021H300.449z"/>
		<path style="fill:#FFFFFF;" d="M315.251,967.373c0-2.504,1.915-4.37,4.517-4.37c2.577,0,4.505,1.853,4.505,4.37
			c0,2.516-1.927,4.369-4.505,4.369C317.166,971.742,315.251,969.877,315.251,967.373z M323.365,967.373
			c0-2.05-1.534-3.56-3.596-3.56c-2.075,0-3.621,1.51-3.621,3.56c0,2.049,1.546,3.559,3.621,3.559
			C321.831,970.932,323.365,969.422,323.365,967.373z"/>
		<path style="fill:#FFFFFF;" d="M346.724,963.076l-2.897,8.593h-0.957l-2.516-7.328l-2.529,7.328h-0.945l-2.897-8.593h0.933
			l2.479,7.389l2.566-7.389h0.847l2.529,7.426l2.516-7.426H346.724z"/>
		<path style="fill:#FFFFFF;" d="M364.435,963.076v8.593h-0.749l-5.524-6.972v6.972h-0.908v-8.593h0.749l5.536,6.973v-6.973H364.435
			z"/>
		<path style="fill:#FFFFFF;" d="M376.108,963.076h0.908v7.807h4.812v0.786h-5.72V963.076z"/>
		<path style="fill:#FFFFFF;" d="M391.279,967.373c0-2.504,1.915-4.37,4.517-4.37c2.577,0,4.505,1.853,4.505,4.37
			c0,2.516-1.927,4.369-4.505,4.369C393.194,971.742,391.279,969.877,391.279,967.373z M399.392,967.373
			c0-2.05-1.534-3.56-3.596-3.56c-2.075,0-3.621,1.51-3.621,3.56c0,2.049,1.546,3.559,3.621,3.559
			C397.858,970.932,399.392,969.422,399.392,967.373z"/>
		<path style="fill:#FFFFFF;" d="M416.478,969.374h-4.787l-1.031,2.295h-0.945l3.928-8.593h0.896l3.928,8.593h-0.957
			L416.478,969.374z M416.147,968.637l-2.062-4.615l-2.062,4.615H416.147z"/>
		<path style="fill:#FFFFFF;" d="M428.765,963.076h3.498c2.75,0,4.603,1.768,4.603,4.297s-1.854,4.296-4.603,4.296h-3.498V963.076z
			 M432.214,970.883c2.283,0,3.756-1.448,3.756-3.51s-1.473-3.511-3.756-3.511h-2.541v7.021H432.214z"/>
		<path style="fill:#FFFFFF;" d="M465.256,969.374h-4.787l-1.031,2.295h-0.945l3.928-8.593h0.896l3.928,8.593h-0.957
			L465.256,969.374z M464.925,968.637l-2.062-4.615l-2.062,4.615H464.925z"/>
		<path style="fill:#FFFFFF;" d="M477.543,963.076h0.908v7.807h4.812v0.786h-5.72V963.076z"/>
		<path style="fill:#FFFFFF;" d="M493.647,963.076h0.908v7.807h4.812v0.786h-5.72V963.076z"/>
		<path style="fill:#FFFFFF;" d="M522.749,963.862v3.376h4.443v0.786h-4.443v3.646h-0.909v-8.593h5.891v0.786H522.749z"/>
		<path style="fill:#FFFFFF;" d="M538.485,963.076h0.909v8.593h-0.909V963.076z"/>
		<path style="fill:#FFFFFF;" d="M551.067,963.076h0.909v7.807h4.811v0.786h-5.72V963.076z"/>
		<path style="fill:#FFFFFF;" d="M573.246,970.883v0.786h-6.076v-8.593h5.891v0.786h-4.983v3.056h4.443v0.774h-4.443v3.191H573.246z
			"/>
		<path style="fill:#FFFFFF;" d="M597.255,963.862v3.376h4.443v0.786h-4.443v3.646h-0.909v-8.593h5.891v0.786H597.255z"/>
		<path style="fill:#FFFFFF;" d="M612.119,967.373c0-2.504,1.915-4.37,4.517-4.37c2.577,0,4.505,1.853,4.505,4.37
			c0,2.516-1.927,4.369-4.505,4.369C614.034,971.742,612.119,969.877,612.119,967.373z M620.232,967.373
			c0-2.05-1.534-3.56-3.596-3.56c-2.075,0-3.622,1.51-3.622,3.56c0,2.049,1.547,3.559,3.622,3.559
			C618.698,970.932,620.232,969.422,620.232,967.373z"/>
		<path style="fill:#FFFFFF;" d="M637.919,971.669l-1.963-2.762c-0.222,0.024-0.442,0.037-0.688,0.037h-2.307v2.725h-0.909v-8.593
			h3.216c2.185,0,3.511,1.105,3.511,2.946c0,1.351-0.712,2.295-1.964,2.7l2.099,2.946H637.919z M637.871,966.022
			c0-1.375-0.909-2.161-2.627-2.161h-2.283v4.309h2.283C636.962,968.17,637.871,967.373,637.871,966.022z"/>
		<path style="fill:#FFFFFF;" d="M658.724,963.076v8.593h-0.871v-6.874l-3.376,5.782h-0.429l-3.376-5.745v6.837h-0.872v-8.593h0.749
			l3.732,6.371l3.695-6.371H658.724z"/>
		<path style="fill:#FFFFFF;" d="M675.787,969.374h-4.788l-1.031,2.295h-0.946l3.928-8.593h0.896l3.928,8.593h-0.957
			L675.787,969.374z M675.455,968.637l-2.062-4.615l-2.062,4.615H675.455z"/>
		<path style="fill:#FFFFFF;" d="M689.312,963.862h-3.02v-0.786h6.948v0.786h-3.02v7.807h-0.908V963.862z"/>
		<path style="fill:#FFFFFF;" d="M702.605,970.626l0.356-0.7c0.614,0.601,1.706,1.043,2.835,1.043c1.608,0,2.308-0.675,2.308-1.522
			c0-2.357-5.29-0.908-5.29-4.087c0-1.265,0.982-2.357,3.167-2.357c0.97,0,1.976,0.282,2.664,0.761l-0.307,0.724
			c-0.737-0.479-1.596-0.712-2.357-0.712c-1.571,0-2.271,0.7-2.271,1.559c0,2.357,5.29,0.933,5.29,4.063
			c0,1.265-1.006,2.344-3.204,2.344C704.508,971.742,703.243,971.288,702.605,970.626z"/>
	</g>
</g>
<g>
</g>
<g>
	<path style="fill:#1D426A;" d="M744.724,612.81c-0.98-0.7-2.23-0.63-3.27-1.1c-1.2-0.54-1.62-0.04-2.02,1.02
		c-1.58,4.18-3.47,8.22-6.15,11.83c-1.9,2.56-4.37,4.23-7.49,4.91c-5.58,1.22-11.21,1.01-16.83,0.47c-1.33-0.13-2.71-0.24-3.8-1.19
		c-1.05-1.26-2.32-2.39-2.55-4.14c-0.21-1.64-0.49-3.26-0.48-4.92v-60.37c0-1.6,0.26-3.17,0.56-4.73c0.48-2.46,1.95-3.95,4.38-4.51
		c1.5-0.35,3.02-0.51,4.54-0.67c2.41-0.25,2.92-0.85,2.89-3.27c-0.01-0.79-0.12-1.53-0.55-2.2c-0.28-0.05-0.57-0.16-0.85-0.16
		c-8.84-0.01-17.68,0.03-26.51-0.04c-1.43-0.01-1.28,0.73-1.28,1.64c0.01,9.6,0.01,19.2,0,28.8c-0.01,15.25-0.02,30.51-0.06,45.76
		c-0.02,6.68-5.18,11.8-11.76,11.69c-5.94-0.09-10.82-2.55-14.6-7.06c-6.43-7.67-12.81-15.38-19.12-23.14
		c-3.86-4.75-7.56-9.62-11.33-14.43c-1.63-1.01-2.03-2.96-3.26-4.28c-0.97-1.05-0.7-1.92,0.25-2.87
		c6.63-6.6,13.16-13.29,20.05-19.61c2.42-2.22,4.89-4.41,7.66-6.22c4.39-2.85,9.21-4.37,14.42-4.72c0.98-0.06,2-0.23,2.17-1.39
		c0.18-1.32,0.41-2.69-0.32-3.96c-0.61-0.32-1.27-0.17-1.91-0.17c-10.36-0.01-20.72-0.01-31.08-0.01c-3.4,0-3.4,0-3.37,3.45
		c0.02,1.88,2.15,4.29,3.99,4.45c1.45,0.14,3.77-0.16,4.09,0.77c0.49,1.45-1.24,2.81-2.2,4.12c-0.1,0.14-0.22,0.27-0.33,0.41
		c-6.49,7.77-13.4,15.15-20.58,22.28c-2.4,2.38-4.9,4.67-8.07,6.42v-25.45c-0.81,0.14-0.72,0.83-0.79,1.37
		c-0.1,0.7-0.05,1.41-0.05,2.12c-0.01,6.71,0.02,13.42-0.02,20.13c-0.01,0.84-0.07,1.96-1.07,1.93c-1.08-0.04-0.62-1.2-0.62-1.86
		c-0.03-7.48-0.03-14.96-0.02-22.43c0.01-2.12,0.26-4.24,0.59-6.32c0.51-3.2,1.91-4.59,5.11-5.27c1.21-0.26,2.44-0.36,3.66-0.55
		c1.77-0.28,2.42-1.04,2.61-2.81c0.08-0.86-0.16-1.63-0.47-2.4c-0.57-0.64-1.32-0.34-1.99-0.34c-7.28-0.03-14.57-0.02-21.86-0.02
		c-4.99,0-9.99-0.01-14.98,0.01c-0.52,0.01-1.39-0.3-1.39,0.6c0,1.49-0.37,3.02,0.24,4.49c0.96,0.28,1.92,0.47,2.93,0.48
		c1.73,0.01,3.36,0.55,4.96,1.1c0.95,0.32,1.84,0.82,1.98,2c0.87,0.34,1.38,0.89,1.56,1.88c0.27,1.51,0.53,3.02,0.53,4.55
		c0.03,20.24,0.04,40.49,0.06,60.73c0,1.84-0.3,3.63-1.09,5.31c-4.07,8.62-15.11,8.31-18.31,3.09c-0.65-0.44-1.09-1.05-1.49-1.72
		c-1.64-2.79-3.09-5.68-4.2-8.73c-2.28-6.25-4.7-12.45-7.01-18.68c-5.03-13.58-9.98-27.18-14.96-40.78
		c-1.93-5.24-3.54-10.6-5.95-15.66c-0.31-0.72-0.84-0.65-1.46-0.48c-1.36,0.37-2.73,0.71-4.11,0.99c-0.97,0.2-1.46,0.7-1.82,1.63
		c-6.01,15.54-12.05,31.07-18.09,46.6c-4.19,10.77-8.47,21.5-12.54,32.32c-1.83,4.85-9.39,6.63-12.91,2.82
		c-0.9-0.7-1.47-1.66-2.03-2.63c-3.7-6.36-7.32-12.76-10.98-19.14c-2.16-3.78-4.3-7.58-6.5-11.34c-0.68-1.15-0.52-1.8,0.72-2.29
		c0.93-0.36,1.82-0.84,2.69-1.32c10.74-6.01,15.11-15.39,12.82-27.41c-0.47-2.48-1.41-4.81-2.79-6.94c-1.5-1.72-3.08-3.38-4.84-4.84
		c-5.19-4.29-11.38-5.71-17.88-6.1c-10.99-0.67-22-0.16-33-0.34c-1.22-0.02-1.47,0.41-1.45,1.52c0.06,2.53-0.03,5.06-0.03,7.59
		c0,22.13-0.01,44.26,0.01,66.39c0,3.67-1.24,6.75-3.93,9.28c-4.69,4.4-12.68,3.46-15.12-0.41c-2.97-2.72-3.73-6.29-3.74-10.1
		c-0.01-19.18,0-38.36-0.01-57.55c0-1.83,0.25-3.64,0.53-5.44c0.5-3.23,1.89-4.6,5.07-5.28c1.04-0.22,2.09-0.39,3.14-0.5
		c3.48-0.36,3.99-1,3.57-4.51c-0.03-0.23-0.11-0.46-0.12-0.7c-0.48-0.78-1.27-0.47-1.92-0.48c-8.71-0.02-17.41-0.01-26.11-0.01
		c-4,0-7.99-0.01-11.99,0.02c-0.46,0-1.3-0.3-1.29,0.45c0.02,1.55-0.48,3.14,0.29,4.64c1.01,0.3,2.04,0.44,3.11,0.48
		c1.71,0.05,3.37,0.48,4.95,1.14c0.87,0.37,1.68,0.86,1.84,1.94c1.07,0.32,1.57,1.11,1.71,2.16c0.14,1.17,0.39,2.34,0.4,3.5
		c0.02,20.78,0.03,41.55,0.01,62.32c0,3.36-1.41,6.14-3.89,8.37c-4.28,3.87-11.48,3.84-14.83-0.03c-1.93-2.12-3.33-4.46-3.7-7.41
		c-0.73-5.74-0.33-11.52-0.6-17.27c-0.41-8.68-0.57-17.39-0.74-26.08c-0.17-9.05-0.68-18.1-0.43-27.16
		c0.03-0.94,0.04-1.88-0.01-2.82c-0.08-1.41-0.17-2.83-0.89-4.1c-4.17-0.34-8.35,0.01-12.52-0.19c-1.42-0.06-2.06,0.46-2.62,1.69
		c-9.32,20.27-18.67,40.52-28.04,60.76c-0.22,0.49-0.23,1.21-0.98,1.33c-0.28,0.15-0.38,0.45-0.58,0.66
		c-0.22-0.13-0.26-0.38-0.35-0.58c-3.69-7.9-7.25-15.85-10.82-23.8c-3.65-8.1-7.37-16.18-11.02-24.28
		c-2.32-5.14-4.36-10.43-7.29-15.28c-0.21-0.49-0.65-0.45-1.05-0.45c-8.47-0.01-16.94-0.01-25.4,0c-0.45,0-1.08-0.09-1.05,0.6
		c0.06,1.5-0.37,3.02,0.26,4.49c0.75,0.31,1.54,0.43,2.36,0.52c3.19,0.37,6.41,0.69,8.57,3.55c0.87,0.52,0.95,1.44,1.09,2.29
		c0.63,3.63,0.38,7.27,0.12,10.91c-0.74,10.2-1.49,20.4-2.25,30.61c-0.65,8.79-1.4,17.58-2.8,26.29c-0.57,3.6-2.53,6.11-6.13,7.23
		c-1.52,0.47-3.06,0.81-4.64,1.01c-0.49,0.06-1.3-0.08-1.27,0.61c0.06,1.53-0.55,3.13,0.35,4.59c0.74,0.25,1.5,0.28,2.27,0.28
		c9.6,0,19.21,0.01,28.81-0.01c3.16,0,3.74-0.66,3.41-3.78c-0.04-0.35-0.18-0.68-0.25-1.03c-0.49-0.78-1.33-0.61-2.04-0.68
		c-2.09-0.22-4.16-0.58-6.18-1.14c-0.94-0.26-1.7-0.71-1.96-1.74c-2.27-1.12-2.35-3.34-2.62-5.41c-0.95-7.46-0.22-14.93,0.06-22.38
		c0.33-8.86,0.82-17.73,1.36-26.58c0.21-3.56,0.05-7.15,0.7-10.8c0.68,1.88,1.64,3.55,1.45,5.53c-0.04,0.4,0.12,0.82,0.51,1.07
		c0.34-0.57-0.07-1.31,0.46-1.93c0.16,0.35,0.33,0.65,0.46,0.96c8.97,21.74,17.95,43.47,26.93,65.2c0.26,0.62,0.33,1.4,1.07,1.74
		c2.53,0.31,3.36-0.17,4.41-2.49c3.23-7.19,6.38-14.42,9.55-21.65c6.18-14.12,12.45-28.21,18.64-42.33
		c1.15-2.65,2.18-5.36,3.64-8.05c0.22,2.6-0.17,5.01,0.19,7.4c0.63,0.43,0.31,1.08,0.32,1.62c0.09,4.58,0.17,9.17,0.2,13.76
		c0.07,12.36,0.13,24.72,0.15,37.08c0.01,1.29-0.16,2.59-0.34,3.87c-0.43,2.99-2.06,4.94-5.08,5.57c-1.72,0.36-3.46,0.64-5.2,0.94
		c-0.46,0.08-1.02,0.03-0.95,0.73c0.11,1.32-0.33,2.67,0.25,3.96c0.95,0.59,2.01,0.58,3.08,0.58h112.71
		c3.39-0.01,4.02-0.76,3.51-4.16c-0.03-0.23-0.11-0.45-0.14-0.69c-0.22-0.5-0.7-0.32-1.07-0.38c-2.03-0.3-4.08-0.49-6.07-1.02
		c-0.87-0.23-1.64-0.56-1.98-1.48c-1.98-1.2-2.44-3.18-2.72-5.26c-0.64-4.63-0.3-9.28-0.36-13.92c-0.04-3.77,0-7.53-0.01-11.3
		c0-1.09,0.29-1.77,1.58-1.81c4.04-0.13,7.72,0.68,10.62,3.75c1.1,0.76,1.65,1.93,2.25,3.06c3.25,6.04,5.52,12.54,8.71,18.6
		c2.8,5.34,6.27,10.15,10.95,14.02c0.47,0.08,0.88,0.32,1.29,0.56c4.73,2.85,9.92,3.49,15.18,2.43c8.61-1.72,14.56-6.82,17.75-15.07
		c2.11-5.46,3.42-11.15,5.11-16.73c0.73-2.42,0.82-2.49,3.29-2.49c7.01-0.01,14.02,0.03,21.04-0.02c2.36-0.02,4.74-0.26,5.98,2.42
		c0.92,2.41,1.91,4.79,2.74,7.23c1.25,3.66,2.84,7.21,3.65,11.01c0.51,2.41-0.24,3.67-2.51,4.55c-1.53,0.59-3.14,0.94-4.77,1.18
		c-0.5,0.07-1.18,0.05-1.13,0.81c0.09,1.37-0.36,2.78,0.24,4.12c0.9,0.56,1.89,0.59,2.9,0.59c23.9,0,47.8,0,71.7-0.01
		c3.18,0,3.81-0.77,3.38-3.96c-0.04-0.29-0.16-0.56-0.22-0.85c-0.33-0.59-0.93-0.37-1.42-0.45c-2.59-0.43-5.26-0.48-7.68-1.7
		c-1.49-1.62-2.82-3.34-2.96-5.65c-0.14-2.23-0.49-4.43-0.46-6.68c0.06-4.82,0.01-9.64,0.02-14.46c0-3.17-0.04-6.34,0.02-9.52
		c0.02-1.5,0.66-1.9,2.02-1.3c1.2,0.52,2.15,1.42,3.1,2.29c0.68,0.47,1.27,1,1.78,1.66c5.52,7.15,11.03,14.31,16.61,21.42
		c4.99,6.37,9.87,12.82,15.18,18.92c0.68,0.22,1.38,0.27,2.1,0.27c29.57,0,59.15,0.01,88.72-0.01c2.76,0,3.19-0.36,3.89-3.06
		c1.6-6.16,2.85-12.4,4.1-18.64C745.034,614.28,745.154,613.53,744.724,612.81z M531.084,570.44c3.11,8.88,6.21,17.77,9.38,26.84
		h-19.85c0.18-0.55,0.34-1.11,0.53-1.65c3.12-8.5,6.25-17,9.37-25.5C530.754,570.15,530.994,570.17,531.084,570.44z M450.984,590.53
		c-2.27,0.31-4.56,0.42-6.86,0.44c-1.13,0.01-1.49-0.28-1.48-1.45c0.07-11.07,0.07-22.13,0.09-33.19c0.34-2.23,1.69-3.32,3.88-3.67
		c5.28-0.83,10.28-0.16,14.92,2.6c1.79,1.47,2.77,3.48,3.47,5.59c1.97,5.86,2.15,11.81,0.24,17.68
		C462.994,585.4,458.234,589.51,450.984,590.53z"/>
	<path style="fill:#1F4370;" d="M572.284,392.45c-1.98-3.92-4.31-7.64-6.52-11.44c-0.95,0.37-0.59,1.16-0.5,1.78
		c0.19,1.51,0.34,3.02,0.4,4.55c0.24,6.08-0.7,12.01-1.85,17.95c0,0.01-0.01,0.03-0.01,0.04c-0.91,2.77-1.53,5.63-2.37,8.43
		c-0.03,0.13-0.07,0.25-0.11,0.38c-4.69,15.3-12.54,28.94-21.94,41.77c-0.03,0.05-0.07,0.09-0.1,0.14
		c-0.05,0.07-0.09,0.13-0.14,0.19c-2.87,4-6.04,7.71-9.82,11.1c3.56-3.47,6.63-7.36,9.66-11.27c0.05-0.07,0.1-0.13,0.15-0.2
		c0.05-0.06,0.09-0.12,0.14-0.18c6.94-9.83,13.24-20.02,17.98-31.11c0.31-0.74,0.71-1.43,0.67-2.27c0.01-0.02,0-0.05,0-0.08
		c-0.02-0.08-0.04-0.15-0.07-0.22V422c-0.21-0.5-0.6-0.81-1.1-0.98c-3.2-1.11-6.46-2.02-9.48-3.63c-2.32-1.23-4.75-2.21-6.85-3.86
		c-1.02-0.8-2.1-1.64-3.49-1.76h-0.02c-0.06-0.01-0.12-0.02-0.18-0.02c-0.42,0.45-0.55,1.03-0.65,1.61c-1.59,9-4.68,17.47-9.05,25.5
		c-6.63,12.19-15.67,22.28-26.51,30.84c-1.18,0.94-2.06,0.92-3.28,0.08c-6.05-4.19-11.34-9.21-15.96-14.89
		c-11.45-14.06-17.87-30.3-20.39-48.17c-0.21-1.5,0.22-2.26,1.56-2.87c12.89-5.92,26.43-8.23,40.56-7.28
		c0.71,0.05,1.56,0.36,2.02-0.45c0.01-0.01,0.02-0.03,0.02-0.04c0.03-0.05,0.06-0.1,0.08-0.16c-0.48-2.14-0.23-4.31-0.29-6.47
		c-0.03-0.99,0.11-2.02-0.35-2.94c-0.63-1.25-0.8-2.56-0.7-3.92c0.11-1.73-0.23-3.32-1.16-4.77c-0.04-0.06-0.08-0.13-0.13-0.19
		c0-0.01-0.01-0.01-0.01-0.02c-0.01-0.01-0.01-0.01-0.02-0.02c-0.04-0.06-0.08-0.1-0.14-0.15c-0.08-0.1-0.19-0.18-0.32-0.25
		c-0.59-0.14-1.18-0.26-1.77-0.35c0.46,0.03,0.92,0.06,1.38,0.09c0.35,0.03,0.7,0.07,1.05,0.12c0.11,0,0.23,0.01,0.34,0.03
		c0.49,0.05,0.97,0.11,1.46,0.18c0.12,0.01,0.23,0.03,0.34,0.04c0.07,0.01,0.14,0.01,0.2,0.02c1.88,0.25,3.76,0.53,5.64,0.84
		c0.91,0.15,1.8,0.36,2.69,0.59c1.33,0.34,2.64,0.72,3.98,1.01c0.51,0.1,1.02,0.2,1.53,0.27c0.01,0,0.02,0,0.03-0.01
		c0.15-0.02,0.29-0.05,0.42-0.08c0,0,0,0.01,0.01,0c2.56-0.49,2.72-0.64,2.88-3.52c0.25-4.64,0.9-9.16,2.5-13.54
		c0.45-1.24-0.03-2.18-1.29-2.66c-7.17-1.42-14.43-2.07-21.74-2.22c-17.6-0.35-34.67,2.41-51.09,8.91
		c-6.54,2.59-12.6,5.82-16.84,11.7c-3.94,5.45-6.95,11.45-10.32,17.24c-0.62,1.06-0.93,2.28-1.15,3.5
		c-0.88,4.9-0.07,9.75,0.55,14.57c1.91,14.84,6.6,28.82,13.53,42.05c9.56,18.27,22.31,33.82,39.19,45.84
		c4.21,3,8.85,4.83,13.98,5.42c6.4,0.75,12.83,0.23,19.24,0.34c2.91,0.05,5.58-0.8,8.03-2.32c6.88-4.25,13.26-9.18,19-14.87
		c21.19-21.03,34.51-46.14,39.13-75.74C576.114,406.97,575.884,399.54,572.284,392.45z M528.424,468.12
		c-0.63,0.56-1.27,1.11-1.93,1.64C527.194,469.09,527.844,468.6,528.424,468.12z M460.494,378.32c0.02,0,0.05-0.01,0.07-0.01
		c0.18-0.03,0.35-0.06,0.53-0.09c-0.2,0.04-0.39,0.07-0.58,0.11c-0.09,0.01-0.18,0.03-0.26,0.05c-4.18,0.78-8.29,1.74-12.02,2.83
		c3.72-1.13,7.82-2.15,12.01-2.85C460.324,378.35,460.414,378.34,460.494,378.32z M470.894,376.86c3.65-0.39,7.32-0.63,11.01-0.65
		h1.04C478.924,376.25,474.904,376.46,470.894,376.86z"/>
	<path style="fill:#1F4F7F;" d="M564.274,405.5c-0.02,0.09-0.15,0.16-0.23,0.25c-1.14,1.62-1.15,3.6-1.75,5.4
		c-0.29,0.87-0.58,1.74-0.86,2.61c-0.77,2.34-1.55,4.67-2.47,6.96c-0.23,0.57-0.26,1.4-1.04,1.59c-0.07,0.02-0.15,0.03-0.23,0.04
		c-1.49-1.5-3.59-1.71-5.44-2.34c-1.21-0.41-2.42-0.86-3.58-1.36c-1.89-0.82-3.65-1.95-5.52-2.84c-2.27-1.07-4.1-2.78-6.22-4.04
		c-0.01,0-0.01-0.01-0.02-0.01c-0.62-0.49-0.42-1.14-0.37-1.77c0.14-1.78,0.39-3.56,0.59-5.34c0.02-0.14,0.04-0.28,0.05-0.42
		c0.02-0.09,0.03-0.18,0.04-0.27c0.66-5.24-0.39-10.21-3.76-14.28c-2.45-2.97-5.96-4.93-9.53-6.55c-0.95-0.43-2.07-0.56-2.76-1.46
		c-0.02-0.14-0.05-0.26-0.11-0.36c-0.19-0.41-0.63-0.54-1.07-0.72c-0.07-0.02-0.13-0.04-0.2-0.06c-0.21-0.06-0.44-0.11-0.63-0.21
		c-0.12-0.07-0.23-0.16-0.28-0.3c-0.06-0.11-0.09-0.24-0.08-0.42c0.57-0.13,1.13-0.29,1.7-0.36c0.7-0.07,1.14-0.39,1.11-1.09
		c-0.06-1.18,0.43-2.33,0.33-3.45c-0.38-4.15,1-7.92,2.26-11.71c0.43-1.28-0.09-1.98-0.8-2.77c12.32,2.12,23.99,6.13,34.98,12.06
		c3.55,1.92,5.72,5.15,7.38,8.73c-0.64,0.63,0,1.23,0.08,1.82C566.824,390.49,565.874,398.02,564.274,405.5z"/>
	<path style="fill:#1B223D;" d="M333.184,636.186c38.646-0.004,77.292-0.007,115.938-0.011c2.815,0,2.811,0,2.876-2.769
		c0.012-0.513-0.141-1.076,0.345-1.484c2.105,1.457,3.049,3.379,2.689,5.997c-0.127,0.923-0.36,1.248-1.248,1.148
		c-0.407-0.046-0.823-0.008-1.235-0.008c-37.848,0-75.697-0.033-113.545,0.07C336.321,639.137,334.56,638.286,333.184,636.186z"/>
	<path style="fill:#1B223D;" d="M646.078,636.484c0.671-0.565,1.471-0.295,2.207-0.296c29.656-0.015,59.313-0.03,88.969,0.029
		c1.833,0.004,2.498-0.577,2.926-2.33c1.703-6.987,3.167-14.022,4.542-21.077c0.769,0.716,1.519,1.455,2.314,2.141
		c0.524,0.452,0.562,0.978,0.437,1.587c-1.44,7.018-2.861,14.04-4.57,21.001c-0.283,1.153-0.729,1.559-1.992,1.557
		c-30.318-0.044-60.637-0.051-90.955,0.001C647.907,639.099,647.246,637.529,646.078,636.484z"/>
	<path style="fill:#1B223D;" d="M307.407,635.777c2.781-0.11,3.72-2.005,4.699-4.291c4.989-11.646,10.138-23.223,15.257-34.813
		c3.791-8.586,7.629-17.152,11.43-25.733c1.472-3.324,2.9-6.669,4.352-10.002c0.155-0.356,0.206-0.804,0.95-0.955
		c-0.023,2.935,0.432,5.809-0.261,8.68c-3.554,8.161-7.09,16.332-10.667,24.483c-6.357,14.486-12.738,28.962-19.111,43.442
		c-0.826,1.876-3.439,2.396-4.952,0.97C308.507,636.996,307.97,636.372,307.407,635.777z"/>
	<path style="fill:#1B223D;" d="M474.243,636.18c0.628-0.649,1.099,0.019,1.539,0.255c9.35,5.025,20.817,2.675,27.674-4.871
		c3.467-3.816,5.023-8.552,6.488-13.322c1.255-4.083,2.42-8.195,3.544-12.316c0.339-1.243,0.955-1.598,2.223-1.589
		c7.94,0.061,15.88,0.031,23.82,0.031c3.109,0,3.109,0,4.351,2.911c-8.534-0.009-17.068,0.002-25.601-0.053
		c-1.083-0.007-1.52,0.342-1.83,1.363c-1.718,5.67-3.112,11.437-5.095,17.029c-3.07,8.658-8.876,14.344-18.027,16.002
		C486.184,642.915,479.706,641.146,474.243,636.18z"/>
	<path style="fill:#1B223D;" d="M705.162,628.746c-1.927-0.583-2.766-2.124-3.135-3.888c-0.31-1.479-0.431-3.022-0.433-4.537
		c-0.026-20.488-0.013-40.975-0.024-61.463c-0.001-1.836,0.335-3.625,0.788-5.372c0.701-2.704,2.908-3.7,5.374-4.194
		c1.256-0.252,2.553-0.333,3.837-0.401c2.199-0.118,2.377-0.271,2.38-2.474c0.001-0.824,0.003-1.648,0.005-2.473
		c2.702,1.481,3.205,3.878,2.908,6.693c-0.099,0.938-0.583,0.992-1.277,1.024c-1.763,0.081-3.515,0.275-5.239,0.668
		c-3.562,0.812-5.013,2.316-5.518,5.927c-0.227,1.625-0.351,3.277-0.353,4.917c-0.023,19.586-0.009,39.171-0.023,58.757
		C704.451,624.233,704.723,626.496,705.162,628.746z"/>
	<path style="fill:#1C233E;" d="M404.675,628.344c-1.195-0.284-2.419-1.537-3.112-3.299c-0.757-1.924-1.176-3.932-1.177-6.002
		c-0.01-19.666-0.042-39.332,0.04-58.997c0.01-2.478,0.118-5.022,1.211-7.399c0.732-1.591,1.918-2.512,3.512-2.931
		c1.695-0.445,3.418-0.796,5.188-0.841c2.219-0.056,2.383-0.26,2.429-2.425c0.016-0.732-0.293-1.542,0.344-2.185
		c2.563,1.434,2.768,3.788,2.548,6.356c-0.066,0.77-0.373,0.988-1.077,1.041c-1.464,0.108-2.932,0.231-4.383,0.451
		c-4.389,0.667-6.149,2.51-6.588,6.917c-0.151,1.518-0.222,3.049-0.223,4.575c-0.015,19.121,0.006,38.241-0.028,57.362
		C403.354,623.526,403.593,625.999,404.675,628.344z"/>
	<path style="fill:#1B223D;" d="M628.447,586.998c-0.177,0.251-0.408,0.249-0.572,0.034c-1.24-1.628-2.474-3.261-3.692-4.906
		c-0.494-0.667-0.408-1.256,0.215-1.857c5.582-5.379,10.847-11.074,16.581-16.307c3.418-3.12,6.646-6.445,10.369-9.22
		c4.775-3.56,10.134-5.553,16.087-5.84c1.487-0.072,2.16-0.588,1.992-2.136c-0.101-0.929-0.015-1.879-0.013-2.819
		c2.163,1.393,3.373,3.161,3.061,5.947c-0.155,1.389-0.53,1.75-1.843,1.845c-3.41,0.247-6.757,0.898-9.94,2.209
		c-4.538,1.869-8.259,4.932-11.827,8.193c-7.434,6.794-14.465,14-21.553,21.147c-0.697,0.703-0.735,1.17-0.123,1.883
		C627.667,585.729,628.032,586.386,628.447,586.998z"/>
	<path style="fill:#1B223D;" d="M542.108,636.185c24.965-0.003,49.93-0.005,74.895-0.012c2.882-0.001,2.527,0.25,2.566-2.546
		c0.008-0.568-0.183-1.189,0.297-1.681c2.289,1.433,3.076,3.497,2.72,6.135c-0.101,0.751-0.297,1.053-1.043,0.985
		c-0.409-0.037-0.823-0.006-1.235-0.006c-24.126,0-48.253-0.051-72.378,0.072C545.243,639.146,543.489,638.276,542.108,636.185z"/>
	<path style="fill:#1B223D;" d="M365.392,628.759c-2.352-0.935-3.154-3.11-3.828-5.2c-0.529-1.641-0.72-3.449-0.739-5.186
		c-0.063-5.695-0.227-11.387-0.34-17.079c-0.132-6.693-0.354-13.386-0.526-20.075c-0.113-4.398,0.083-8.816-0.286-13.196
		c-0.565-6.695-0.144-13.39-0.306-20.082c-0.033-1.35-0.547-2.653-0.345-4.019c1.904,1.296,3.035,2.787,3.066,5.395
		c0.164,14.111,0.531,28.221,0.885,42.329c0.266,10.579,0.635,21.155,0.919,31.733C363.943,625.32,364.653,627.033,365.392,628.759z
		"/>
	<path style="fill:#1B223D;" d="M277.028,628.385c-0.331,1.189-0.822,0.417-1.194,0.064c-1.462-1.391-1.819-3.274-1.978-5.131
		c-0.356-4.15-0.546-8.318-0.379-12.485c0.324-8.077,0.625-16.157,1.089-24.227c0.255-4.443,0.418-8.894,0.745-13.325
		c0.287-3.897-0.005-7.835,0.862-11.937c1.406,2.779,2.664,5.388,2.308,8.467c-0.572,11.666-1.195,23.331-1.697,35
		C276.446,612.668,276.059,620.536,277.028,628.385z"/>
	<path style="fill:#1B223D;" d="M486.988,626.317c-1.929-0.532-2.419-2.358-3.249-3.79c-5.644-9.745-11.2-19.54-16.826-29.295
		c-0.763-1.324-0.78-1.959,0.858-2.651c5.706-2.413,10.663-5.976,13.463-11.61c3.776-7.598,3.654-15.362-0.355-22.95
		c-0.156-0.294-0.228-0.526,0.039-0.771c7.539,7.15,9.374,25.352-3.829,34.607c-2.173,1.523-4.434,2.888-6.888,3.874
		c-1.2,0.482-1.255,0.895-0.629,1.979c5.663,9.815,11.262,19.667,16.876,29.51C486.65,625.573,486.809,625.951,486.988,626.317z"/>
	<path style="fill:#1C233D;" d="M609.951,560.216c-0.575,0.858-0.305,1.829-0.309,2.741c-0.031,7.116-0.016,14.232-0.02,21.348
		c0,0.742,0.205,1.587-0.781,1.927c-0.591,0.204-1.145,0.91-1.752,0.557c-0.539-0.313-0.242-1.085-0.243-1.647
		c-0.015-8.116-0.066-16.232,0.024-24.347c0.026-2.325,0.35-4.666,0.755-6.962c0.471-2.673,2.557-3.8,4.935-4.42
		c1.123-0.293,2.299-0.438,3.459-0.515c2.3-0.152,2.771-0.58,2.82-2.825c0.014-0.646,0.029-1.293,0.044-1.94
		c2.209,1.437,3.146,3.393,2.785,6.072c-0.136,1.008-0.328,1.453-1.392,1.484c-1.163,0.033-2.325,0.221-3.481,0.383
		c-4.22,0.592-5.806,2.091-6.601,6.234C610.073,558.935,610.03,559.579,609.951,560.216z"/>
	<path style="fill:#1B233E;" d="M571.523,628.009c-1.094,0.131-1.4-0.8-1.825-1.454c-2.351-3.617-3.867-7.621-5.358-11.642
		c-4.85-13.076-9.762-26.129-14.594-39.212c-3.066-8.302-6.059-16.63-9.027-24.968c-0.979-2.749-2.299-5.386-2.805-8.296
		c1.496,1.178,2.546,2.59,3.222,4.45c9.07,24.942,18.03,49.925,27.545,74.702C569.519,623.772,570.571,625.872,571.523,628.009z"/>
	<path style="fill:#1D233E;" d="M443.222,629.036c-0.441,0.63-0.766,0.192-1.133-0.105c-1.389-1.123-1.874-2.774-2.033-4.361
		c-0.197-1.969-0.49-3.938-0.467-5.945c0.081-6.873,0.067-13.749,0.001-20.623c-0.013-1.39,0.383-1.822,1.785-1.793
		c3.245,0.066,6.483,0.064,9.213,2.176c0.717,0.555,1.752,0.928,1.747,2.112c-2.69-1.207-5.541-1.287-8.422-1.28
		c-0.985,0.002-1.329,0.273-1.313,1.292c0.131,8.404-0.198,16.812,0.201,25.214C442.853,626.831,443.077,627.932,443.222,629.036z"
		/>
	<path style="fill:#1B223D;" d="M252.965,636.484c0.607-0.542,1.347-0.296,2.024-0.297c9.911-0.017,19.823-0.063,29.734,0.035
		c1.828,0.018,2.423-0.506,2.203-2.262c-0.082-0.654-0.263-1.412,0.282-2.019c2.405,1.419,2.813,3.625,2.549,6.175
		c-0.081,0.788-0.328,0.957-1.048,0.956c-10.802-0.017-21.605-0.001-32.407-0.023C254.588,639.046,254.028,637.406,252.965,636.484z
		"/>
	<path style="fill:#1D243E;" d="M610.768,629.803c-2.638-1.062-3.346-3.424-3.537-5.844c-0.828-10.455-0.216-20.937-0.409-31.405
		c-0.019-1.058,0.444-1.305,1.381-1.273c1.649,0.057,3.595,1.465,4.305,3.198c-0.397-0.096-0.792-0.207-1.192-0.286
		c-0.973-0.192-1.519-0.002-1.502,1.21c0.136,10.029-0.181,20.062,0.184,30.091C610.051,626.974,610.464,628.375,610.768,629.803z"
		/>
	<path style="fill:#1C233E;" d="M314.861,607.514c-0.03,0.53-0.068,1.058-0.641,1.674c-1.328-2.802-2.651-5.494-3.888-8.224
		c-2.997-6.619-5.943-13.261-8.93-19.884c-4.409-9.776-8.825-19.55-13.266-29.312c-1.138-2.503-2.469-4.919-3.336-7.541
		c1.472,1.191,2.638,2.582,3.435,4.347c8.707,19.275,17.454,38.531,26.187,57.794C314.591,606.74,314.716,607.132,314.861,607.514z"
		/>
	<path style="fill:#1C233E;" d="M372.094,548.876c3.48-0.111,6.928-0.042,9.83,2.273c0.317,0.253,1.471,0.8,0.066,1.287
		c-2.146-0.321-4.281-0.701-6.458-0.819C373.797,551.524,373.216,549.826,372.094,548.876z"/>
	<path style="fill:#1D243F;" d="M257.56,548.867c3.087-0.081,6.107,0.252,8.905,1.659c0.983,0.494,1.958,1.104,2.029,2.415
		c-2.285-0.709-4.624-1.153-7.012-1.245C259.507,551.62,258.761,549.953,257.56,548.867z"/>
	<path style="fill:#1D243E;" d="M578.904,548.868c3.485-0.111,6.925,0.017,9.839,2.292c0.339,0.265,1.428,0.838,0.032,1.29
		c-2.076-0.337-4.143-0.718-6.255-0.818C580.721,551.546,580.05,549.871,578.904,548.868z"/>
	<path style="fill:#FEFEFE;" d="M461.534,555.26c-4.64-2.76-9.64-3.43-14.92-2.6c-2.19,0.35-3.54,1.44-3.88,3.67
		c-0.19-1.67,0.52-3.23,2.26-3.66c5.65-1.43,11.19-1.3,16.23,2.17c0.07,0.05,0.13,0.12,0.17,0.19
		C461.454,555.1,461.494,555.18,461.534,555.26z"/>
	<path style="fill:#FEFEFE;" d="M530.514,570.13c-3.12,8.5-6.25,17-9.37,25.5c-0.19,0.54-0.35,1.1-0.53,1.65
		c-0.43-0.41-0.22-0.87-0.07-1.3c2.94-8.3,6.04-16.54,9.13-24.78C529.844,570.76,530.034,570.33,530.514,570.13z"/>
	<path style="fill:#1B223D;" d="M461.534,555.26c-4.64-2.76-9.64-3.43-14.92-2.6c-2.19,0.35-3.54,1.44-3.88,3.67
		c-0.54,0.67-0.31,1.47-0.31,2.21c-0.02,10.24-0.03,20.49,0,30.74c0.01,1.11-0.14,1.74-1.5,1.7c-1.19-0.04-1.32-0.59-1.31-1.55
		c0.02-5.18,0.01-10.36,0.01-15.54c0-5.77,0.03-11.54-0.03-17.31c-0.01-1.32,0.22-2.58,0.46-3.84c0.37-1.93,1.63-3.01,4.16-3.1
		c4.03-0.14,8.15-0.55,11.94,1.4c1.98,1.02,4.08,1.92,5.24,3.99C461.454,555.1,461.494,555.18,461.534,555.26z"/>
	<path style="fill:#1B223D;" d="M530.514,570.13c-3.12,8.5-6.25,17-9.37,25.5c-0.19,0.54-0.35,1.1-0.53,1.65
		c-0.12,0.01-0.24,0.01-0.35,0.01c-3.76,0.04-3.78,0.04-2.47-3.49c3.41-9.23,6.85-18.46,10.29-27.69c0.18-0.48,0.45-0.93,0.81-1.67
		C529.674,566.45,530.484,568.17,530.514,570.13z"/>
	<path style="fill:#FEFEFE;" d="M537.134,404.65c0.02-0.14,0.04-0.28,0.05-0.42c-7.92-3.2-16.01-5.81-24.48-7.11
		c-2.55-0.39-5.11-0.67-7.67-1c-0.46,0.81-1.31,0.5-2.02,0.45c-14.13-0.95-27.67,1.36-40.56,7.28c-1.34,0.61-1.77,1.37-1.56,2.87
		c2.52,17.87,8.94,34.11,20.39,48.17c4.62,5.68,9.91,10.7,15.96,14.89c1.22,0.84,2.1,0.86,3.28-0.08
		c10.84-8.56,19.88-18.65,26.51-30.84c4.37-8.03,7.46-16.5,9.05-25.5c0.1-0.58,0.23-1.16,0.65-1.61c0.06,0,0.12,0.01,0.18,0.02
		c-1.1,5.59-2.39,11.11-4.46,16.43c-5.94,15.32-15.39,28.13-27.89,38.74c-1.3,1.1-2.74,2.05-3.94,3.26
		c-1.28,1.28-2.25,0.99-3.58,0.05c-14.24-10.14-24.1-23.62-30.49-39.75c-3.17-8.02-5.13-16.36-6.33-24.89
		c-0.18-1.3,0.56-1.51,1.32-1.86c13.34-6.26,27.39-8.64,42.06-7.68c0.46,0.03,0.93,0.03,1.4,0.05c0.02-0.01,0.03-0.03,0.05-0.04
		c0.49-0.4,1.06-0.34,1.63-0.28c8.65,0.86,17.02,2.91,25.18,5.86c1.32,0.49,2.65,0.96,3.95,1.52c0.5,0.22,1.04,0.38,1.41,0.78
		c0.11,0.11,0.21,0.24,0.28,0.4c0.16,2.49-0.44,4.93-0.59,7.4c-0.62-0.49-0.42-1.14-0.37-1.77
		C536.684,408.21,536.934,406.43,537.134,404.65z"/>
	<path style="fill:#1D3C67;" d="M537.874,403.6c0,0.26-0.24,0.51-0.37,0.76c-0.11-0.04-0.21-0.09-0.32-0.13
		c-7.92-3.2-16.01-5.81-24.48-7.11c-2.55-0.39-5.11-0.67-7.67-1h-0.03c-0.62-0.39-0.72-0.97-0.7-1.66c0.04-1.4,0.02-2.8,0.01-4.2
		c-0.02-1.61,0.27-3.27-0.86-4.7c-0.21-0.28-0.19-0.78-0.19-1.18c-0.05-2.25,0.31-4.55-1.06-6.58c0.1-0.06,0.2-0.12,0.3-0.17
		c0.02-0.01,0.03-0.02,0.05-0.02c0.12-0.07,0.25-0.12,0.37-0.16h0.01c0.63-0.22,1.26-0.23,1.88-0.15c0.07,0.01,0.14,0.01,0.2,0.02
		c0.78,0.12,1.56,0.34,2.31,0.43c2.02,0.24,4.03,0.57,6.02,1c1.34,0.29,2.66,0.62,3.98,1.01c0.62,0.17,1.23,0.36,1.84,0.56
		c0.21,0.06,0.41,0.13,0.62,0.2l0.01,0.01c0.07,0.02,0.13,0.04,0.2,0.06c0.49,0.16,0.97,0.33,1.29,0.78
		c2.84,1.47,5.74,2.81,8.48,4.52C536.424,390.07,537.984,396.42,537.874,403.6z"/>
	<path style="fill:#4E9ACF;" d="M557.692,422.353c2.3-4.886,3.92-10.011,5.346-15.205c0.155-0.563,0.234-1.184,0.537-1.658
		c0.304-0.477,0.387,0.011,0.465,0.258c-4.21,18.731-13.03,35.24-24.376,50.531c-0.567,0.103-0.809-0.117-0.696-0.695
		c2.688-4.138,5.476-8.208,8.046-12.426C551.081,436.479,554.798,429.63,557.692,422.353z"/>
	<path style="fill:#55A0D3;" d="M475.381,484.165c-8.957-10.254-15.668-21.901-21.26-34.243c-0.142-0.599,0.123-0.793,0.687-0.689
		c4.336,8.721,8.883,17.325,14.48,25.32c2.144,3.063,4.46,6.006,6.698,9.004c0.171,0.17,0.244,0.371,0.086,0.573
		C475.869,484.389,475.624,484.397,475.381,484.165z"/>
	<path style="fill:#549FD2;" d="M460.183,377.894c10.166-2.027,20.441-2.551,30.773-2.14c3.624,0.144,7.241,0.469,10.861,0.712
		c0.377,0.274,1.174-0.106,1.197,0.651c0.015,0.511-0.378,0.636-0.831,0.362c-7.63-0.583-15.273-0.907-22.922-0.627
		c-5.574,0.204-11.135,0.661-16.644,1.601c-0.462,0.079-0.938,0.072-1.408,0.105C460.568,378.798,460.15,378.694,460.183,377.894z"
		/>
	<path style="fill:#2879B3;" d="M454.808,449.233c-0.34,0.119-0.55,0.368-0.687,0.689c-2.315-4.496-4.02-9.222-5.306-14.103
		c-0.621-2.358-1.142-4.737-1.35-7.211c0.841-0.013,0.763,0.666,0.818,0.992c1.137,6.716,3.649,12.961,6.442,19.115
		C454.796,448.868,454.783,449.059,454.808,449.233z"/>
	<path style="fill:#2476B0;" d="M538.967,455.584c0.137,0.327,0.357,0.571,0.696,0.695c-3.894,5.382-8.187,10.369-14.067,14.518
		c0.226-1.253,0.884-1.505,1.31-1.865c4.46-3.759,8.059-8.274,11.501-12.934C538.54,455.82,538.778,455.72,538.967,455.584z"/>
	<path style="fill:#2C7CB5;" d="M475.381,484.165c0.415,0.009,0.621-0.19,0.606-0.609c3.448,3.659,6.771,7.439,10.459,10.865
		c1.457,1.353,2.974,2.641,4.475,3.946c0.257,0.223,0.584,0.374,0.44,1.034C485.298,494.951,480.018,489.9,475.381,484.165z"/>
	<path style="fill:#2777B0;" d="M502.182,377.479c0.421-0.108,0.882-0.208,0.228-0.672c-0.185-0.131-0.394-0.228-0.593-0.341
		c5.12,0.45,10.179,1.239,15.119,2.699c0.612,0.181,1.245,0.289,1.868,0.431c0.523,0.524,1.261,0.54,1.893,0.805
		c0.426,0.178,0.934,0.318,0.585,0.969c-6.225-1.913-12.55-3.295-19.081-3.571C502.196,377.692,502.19,377.585,502.182,377.479z"/>
	<path style="fill:#2A7BB4;" d="M460.183,377.894c0.169,0.487,0.582,0.599,1.025,0.663c-2.766,0.956-5.695,1.184-8.515,1.909
		c-3.634,0.934-7.215,2.031-10.766,3.237c-0.621,0.211-1.247,0.64-2.304,0.293C446.427,381.097,453.173,379.062,460.183,377.894z"/>
</g>
</svg>
