<svg version="1.1" id="Layer_1" xmlns="http://www.w3.org/2000/svg" xmlns:xlink="http://www.w3.org/1999/xlink" x="0px" y="0px" viewBox="921.2 -158.9 500.9 428.2" style="enable-background:new 921.2 -158.9 500.9 428.2;" xml:space="preserve">
 <style type="text/css">
  .st0{fill:#F71963;}
 </style>
 <title>
  VTEX_pink_RGB
 </title>
 <path class="st0" d="M1384.6-158.9h-374c-29,0-47.6,30.8-34,56.5l37.4,70.8h-67.8c-13.8,0-24.9,11.2-24.9,24.9c0,4,1,8,2.9,11.6
	l120.3,227.8c6.4,12.2,21.5,16.8,33.7,10.4c4.4-2.3,8-6,10.4-10.4l32.7-61.5l41,77.6c14.4,27.3,53.5,27.3,68,0.1l187.5-352.8
	C1430.9-128.8,1412.8-158.9,1384.6-158.9z M1216.6-8.1L1135.8,144c-4.3,8.1-14.3,11.2-22.4,6.9c-2.9-1.6-5.3-4-6.9-6.9L1026.4-7.5
	c-4.3-8.1-1.2-18.1,6.9-22.4c2.4-1.3,5-1.9,7.7-1.9h161.3c8.9,0,16.1,7.2,16.1,16.2C1218.5-13.1,1217.8-10.5,1216.6-8.1L1216.6-8.1z
	">
 </path>
 <path class="st0" d="M1384.6-158.9h-374c-29,0-47.6,30.8-34,56.5l37.4,70.8h-67.8c-13.8,0-24.9,11.2-24.9,24.9c0,4,1,8,2.9,11.6
	l120.3,227.8c6.4,12.2,21.5,16.8,33.7,10.4c4.4-2.3,8-6,10.4-10.4l32.7-61.5l41,77.6c14.4,27.3,53.5,27.3,68,0.1l187.5-352.8
	C1430.9-128.8,1412.8-158.9,1384.6-158.9z M1216.6-8.1L1135.8,144c-4.3,8.1-14.3,11.2-22.4,6.9c-2.9-1.6-5.3-4-6.9-6.9L1026.4-7.5
	c-4.3-8.1-1.2-18.1,6.9-22.4c2.4-1.3,5-1.9,7.7-1.9h161.3c8.9,0,16.1,7.2,16.1,16.2C1218.5-13.1,1217.8-10.5,1216.6-8.1L1216.6-8.1z
	">
 </path>
</svg>